<svg width="28" height="28" viewBox="0 0 28 28" fill="none" xmlns="http://www.w3.org/2000/svg">
<path d="M14 25.6667C20.4433 25.6667 25.6667 20.4434 25.6667 14C25.6667 7.55672 20.4433 2.33337 14 2.33337C7.55669 2.33337 2.33334 7.55672 2.33334 14C2.33334 20.4434 7.55669 25.6667 14 25.6667Z" stroke="black" stroke-width="1.45833" stroke-linecap="round" stroke-linejoin="round"/>
<path d="M14 15.1666C15.933 15.1666 17.5 13.5996 17.5 11.6666C17.5 9.73363 15.933 8.16663 14 8.16663C12.067 8.16663 10.5 9.73363 10.5 11.6666C10.5 13.5996 12.067 15.1666 14 15.1666Z" stroke="black" stroke-width="1.45833" stroke-linecap="round" stroke-linejoin="round"/>
<path d="M8.16666 24.1057V22.1667C8.16666 21.5479 8.41249 20.9544 8.85007 20.5168C9.28766 20.0792 9.88115 19.8334 10.5 19.8334H17.5C18.1188 19.8334 18.7123 20.0792 19.1499 20.5168C19.5875 20.9544 19.8333 21.5479 19.8333 22.1667V24.1057" stroke="black" stroke-width="1.45833" stroke-linecap="round" stroke-linejoin="round"/>
</svg>
